<svg width="1003" height="593" viewBox="0 0 1003 593" fill="none" xmlns="http://www.w3.org/2000/svg">
<g clip-path="url(#clip0_2044_196)">
<g filter="url(#filter0_d_2044_196)">
<path d="M53.3482 90.2087C30.0394 50.2092 58.8934 0 105.189 0H1003V593H541.726C420.744 593 308.876 528.712 247.964 424.183L53.3482 90.2087Z" fill="#F9F8FF"/>
<path d="M52.6182 90.2263C29.2914 50.2269 58.144 0 104.448 0H1003V593H541.138C420.197 593 308.36 528.756 247.433 424.283L52.6182 90.2263Z" fill="url(#paint0_linear_2044_196)"/>
<mask id="mask0_2044_196" style="mask-type:alpha" maskUnits="userSpaceOnUse" x="44" y="0" width="959" height="593">
<path d="M52.6182 90.2263C29.2914 50.2269 58.144 0 104.448 0H1003V593H541.138C420.197 593 308.36 528.756 247.433 424.283L52.6182 90.2263Z" fill="#F9F8FF"/>
</mask>
<g mask="url(#mask0_2044_196)">
<ellipse cx="276.446" cy="301.479" rx="276.446" ry="301.479" transform="matrix(0.909096 -0.416586 0.338401 0.941002 215.878 -80.5122)" fill="url(#paint1_linear_2044_196)"/>
<ellipse cx="273.236" cy="227.834" rx="273.236" ry="227.834" transform="matrix(0.227606 -0.973753 0.953086 0.302701 562 863.128)" fill="url(#paint2_linear_2044_196)"/>
</g>
</g>
</g>
<defs>
<filter id="filter0_d_2044_196" x="40.3579" y="0" width="966.642" height="601" filterUnits="userSpaceOnUse" color-interpolation-filters="sRGB">
<feFlood flood-opacity="0" result="BackgroundImageFix"/>
<feColorMatrix in="SourceAlpha" type="matrix" values="0 0 0 0 0 0 0 0 0 0 0 0 0 0 0 0 0 0 127 0" result="hardAlpha"/>
<feOffset dy="4"/>
<feGaussianBlur stdDeviation="2"/>
<feComposite in2="hardAlpha" operator="out"/>
<feColorMatrix type="matrix" values="0 0 0 0 0 0 0 0 0 0 0 0 0 0 0 0 0 0 0.25 0"/>
<feBlend mode="normal" in2="BackgroundImageFix" result="effect1_dropShadow_2044_196"/>
<feBlend mode="normal" in="SourceGraphic" in2="effect1_dropShadow_2044_196" result="shape"/>
</filter>
<linearGradient id="paint0_linear_2044_196" x1="211.227" y1="-2.94236e-05" x2="1071.65" y2="466.334" gradientUnits="userSpaceOnUse">
<stop stop-color="#FF4F4F"/>
<stop offset="1" stop-color="#FE7171"/>
</linearGradient>
<linearGradient id="paint1_linear_2044_196" x1="116.436" y1="-2.99177e-05" x2="681.291" y2="165.97" gradientUnits="userSpaceOnUse">
<stop stop-color="#FF4F4F"/>
<stop offset="1" stop-color="#FE7171"/>
</linearGradient>
<linearGradient id="paint2_linear_2044_196" x1="584.5" y1="252.825" x2="167.469" y2="483.944" gradientUnits="userSpaceOnUse">
<stop stop-color="#FF4F4F"/>
<stop offset="1" stop-color="#FE7171"/>
</linearGradient>
<clipPath id="clip0_2044_196">
<rect width="1003" height="593" fill="white"/>
</clipPath>
</defs>
</svg>
